<!-- Generated by IcoMoon.io -->
<svg version="1.1" xmlns="http://www.w3.org/2000/svg" width="48" height="48" viewBox="0 0 32 32">
<title>shopping-cart</title>
<path fill="#000" d="M27.972 15.747c0 6.603-5.353 11.957-11.957 11.957s-11.957-5.353-11.957-11.957c0-6.603 5.353-11.957 11.957-11.957s11.957 5.353 11.957 11.957z"></path>
<path fill="#fff" stroke="#036" stroke-width="0.8649" stroke-miterlimit="4" stroke-linecap="butt" stroke-linejoin="miter" d="M27.972 15.747c0 6.603-5.353 11.957-11.957 11.957s-11.957-5.353-11.957-11.957c0-6.603 5.353-11.957 11.957-11.957s11.957 5.353 11.957 11.957z"></path>
<path fill="#000" d="M9.946 20.409h0.633c-0.435 0.734-0.33 1.679 0.33 2.301 0.382 0.361 0.896 0.56 1.45 0.56s1.055-0.199 1.45-0.56c0.382-0.361 0.593-0.846 0.593-1.368 0-0.336-0.092-0.647-0.264-0.933h2.544c-0.435 0.734-0.33 1.679 0.33 2.301 0.382 0.361 0.896 0.56 1.45 0.56s1.055-0.199 1.45-0.56c0.382-0.361 0.593-0.846 0.593-1.368 0-0.336-0.092-0.647-0.264-0.933h0.685c0.303 0 0.54-0.224 0.54-0.51s-0.237-0.51-0.54-0.51h-10.44v-0.995h11.864c0.237 0 0.448-0.149 0.514-0.373l1.793-6.183c0.040-0.149 0.013-0.311-0.092-0.435s-0.264-0.199-0.422-0.199h-13.656v-1.854c0-0.286-0.237-0.51-0.54-0.51s-0.54 0.224-0.54 0.51v10.537c0 0.299 0.237 0.523 0.54 0.523zM17.763 20.695c0.185-0.174 0.422-0.274 0.685-0.274s0.501 0.1 0.685 0.274c0.185 0.174 0.29 0.398 0.29 0.647s-0.105 0.473-0.29 0.647c-0.369 0.348-1.002 0.348-1.371 0-0.382-0.361-0.382-0.933 0-1.294zM11.673 20.695c0.185-0.174 0.422-0.274 0.685-0.274s0.501 0.1 0.685 0.274c0.185 0.174 0.29 0.398 0.29 0.647s-0.105 0.473-0.29 0.647c-0.369 0.348-1.002 0.348-1.371 0-0.382-0.361-0.382-0.933 0-1.294v0zM10.486 12.21h12.945l-1.503 5.175h-11.442v-5.175z"></path>
<path fill="#4a4a4a" d="M9.946 20.409h0.633c-0.435 0.734-0.33 1.679 0.33 2.301 0.382 0.361 0.896 0.56 1.45 0.56s1.055-0.199 1.45-0.56c0.382-0.361 0.593-0.846 0.593-1.368 0-0.336-0.092-0.647-0.264-0.933h2.544c-0.435 0.734-0.33 1.679 0.33 2.301 0.382 0.361 0.896 0.56 1.45 0.56s1.055-0.199 1.45-0.56c0.382-0.361 0.593-0.846 0.593-1.368 0-0.336-0.092-0.647-0.264-0.933h0.685c0.303 0 0.54-0.224 0.54-0.51s-0.237-0.51-0.54-0.51h-10.44v-0.995h11.864c0.237 0 0.448-0.149 0.514-0.373l1.793-6.183c0.040-0.149 0.013-0.311-0.092-0.435s-0.264-0.199-0.422-0.199h-13.656v-1.854c0-0.286-0.237-0.51-0.54-0.51s-0.54 0.224-0.54 0.51v10.537c0 0.299 0.237 0.523 0.54 0.523zM17.763 20.695c0.185-0.174 0.422-0.274 0.685-0.274s0.501 0.1 0.685 0.274c0.185 0.174 0.29 0.398 0.29 0.647s-0.105 0.473-0.29 0.647c-0.369 0.348-1.002 0.348-1.371 0-0.382-0.361-0.382-0.933 0-1.294zM11.673 20.695c0.185-0.174 0.422-0.274 0.685-0.274s0.501 0.1 0.685 0.274c0.185 0.174 0.29 0.398 0.29 0.647s-0.105 0.473-0.29 0.647c-0.369 0.348-1.002 0.348-1.371 0-0.382-0.361-0.382-0.933 0-1.294v0zM10.486 12.21h12.945l-1.503 5.175h-11.442v-5.175z"></path>
<path fill="#4a4a4a" d="M10.013 11.667h14.156l-1.569 5.833h-12.587z"></path>
</svg>
